# xmcd
#
# Track frame offsets:
#	150
#	19933
#	33851
#	54965
#	69039
#	83788
#	110809
#	123567
#	141266
#	161282
#	174178
#	189155
#	202892
#	222177
#
# Disc length: 3175 seconds
#
# Revision: 0
# Processed by: cddbd v1.5.1PL2 Copyright (c) Steve Scherf et al.
# Submitted via: EasyCDDAExtractor 9.1.2.1
#
DISCID=b00c650e
DTITLE=Various Artist - Mr. Music Country 2005-02
DYEAR=1900
DGENRE=Country
TTITLE0=Marty Stuart  - Tip your hat 
TTITLE1=Becky Hobbs  - Kiss my ashes 
TTITLE2=Freddy Lovvorn  - Once an angel 
TTITLE3=Ricky Dean Morgan  - Country country 
TTITLE4=Nitty Gritty Dirt Band  - Party on the mountain 
TTITLE5=Mary Chapin Carpenter  - One small heart 
TTITLE6=Johnny Cash and George Jones  - I still miss someone 
TTITLE7=Tammy Wynette  - It could've been so good 
TTITLE8=Jackson Taylor Band  - Faulkner by dashboard lights 
TTITLE9=Cina Samuelson  - Get ready 
TTITLE10=Travis Tritt  - We've ´had it all 
TTITLE11=Gretchen Wilson  - When it rains 
TTITLE12=Asleep At The Wheel  - New San Antonio rose 
TTITLE13=Buddy Jewell  - Sweet southern comfort 
EXTD=
EXTT0=
EXTT1=
EXTT2=
EXTT3=
EXTT4=
EXTT5=
EXTT6=
EXTT7=
EXTT8=
EXTT9=
EXTT10=
EXTT11=
EXTT12=
EXTT13=
PLAYORDER=
